# xmcd
# Copyright (C) 1995-1998 Ti Kan
#
# Track frame offsets:
#       150
#       18248
#       41158
#       55565
#       75956
#       95828
#       123123
#       139156
#
# Disc length: 2150 seconds
#
# Revision: 0
# Processed by: cddbd v1.5.2PL0 Copyright (c) Steve Scherf et al.
# Submitted via: CD-Transfer v1.0
#
DISCID=5b086408
DTITLE=Japandroids - Brian King, David Prowse
DYEAR=09
DGENRE=
TTITLE0=Boys Are Leaving Town, The
TTITLE1=Young Hearts Spark Fire
TTITLE2=Wet Hair
TTITLE3=Rockers East Vancouver
TTITLE4=Heart Sweats
TTITLE5=Crazy - Forever
TTITLE6=Sovereignty
TTITLE7=I Quit Girls
EXTD=
EXTT0=
EXTT1=
EXTT2=
EXTT3=
EXTT4=
EXTT5=
EXTT6=
EXTT7=
PLAYORDER=
